<?xml version="1.0" encoding="UTF-8"?>
<svg xmlns="http://www.w3.org/2000/svg" width="1280" height="720" viewBox="0 0 1280 720" role="img" aria-labelledby="title desc">
  <title id="title">Debug and Presentation Support</title>
  <desc id="desc">UI panels expose parameters, visual layers and performance counters.</desc>
  <defs>
    <marker id="arrow" markerWidth="12" markerHeight="12" refX="10" refY="6" orient="auto">
      <path d="M2,2 L10,6 L2,10 Z" fill="#315b7c"/>
    </marker>
    <style>
      .bg{fill:#f7fbff}.title{font:700 34px Inter,Segoe UI,Arial,sans-serif;fill:#17324d}.sub{font:18px Inter,Segoe UI,Arial,sans-serif;fill:#5d6b78}
      .lane{font:700 22px Inter,Segoe UI,Arial,sans-serif;fill:#36566f}.box{fill:#fff;stroke-width:2.2}.blue{stroke:#7daed5;fill:#ffffff}.green{stroke:#76b98d;fill:#f0faf3}.amber{stroke:#dca44a;fill:#fff8e8}.violet{stroke:#a986d7;fill:#f8f2ff}
      .label{font:700 21px Inter,Segoe UI,Arial,sans-serif;fill:#17324d}.small{font:16px Inter,Segoe UI,Arial,sans-serif;fill:#435464}.arrow{stroke:#315b7c;stroke-width:3;fill:none;marker-end:url(#arrow)}
    </style>
  </defs>
  <rect class="bg" width="1280" height="720"/>
  <text class="title" x="58" y="62">Debug and Presentation Support</text>
  <text class="sub" x="60" y="94" text-anchor="start">UI panels expose parameters, visual layers and performance counters.</text>
  <text class="lane" x="70" y="154">Controls</text>
<rect class="box green" x="70" y="188" width="350" height="86" rx="12"/>
<text class="label" x="92" y="224" text-anchor="start">Terrain</text>

<rect class="box amber" x="70" y="306" width="350" height="86" rx="12"/>
<text class="label" x="92" y="342" text-anchor="start">Ocean</text>

<path class="arrow" d="M245 274 L245 306"/>
<rect class="box violet" x="70" y="424" width="350" height="86" rx="12"/>
<text class="label" x="92" y="460" text-anchor="start">Atmosphere</text>

<path class="arrow" d="M245 392 L245 424"/>
<rect class="box blue" x="70" y="542" width="350" height="86" rx="12"/>
<text class="label" x="92" y="578" text-anchor="start">Clouds</text>

<path class="arrow" d="M245 510 L245 542"/>
<text class="lane" x="465" y="154">Debug Views</text>
<rect class="box amber" x="465" y="188" width="350" height="86" rx="12"/>
<text class="label" x="487" y="224" text-anchor="start">Hydrology</text>

<rect class="box violet" x="465" y="306" width="350" height="86" rx="12"/>
<text class="label" x="487" y="342" text-anchor="start">Erosion</text>

<path class="arrow" d="M640 274 L640 306"/>
<rect class="box blue" x="465" y="424" width="350" height="86" rx="12"/>
<text class="label" x="487" y="460" text-anchor="start">Materials</text>

<path class="arrow" d="M640 392 L640 424"/>
<rect class="box green" x="465" y="542" width="350" height="86" rx="12"/>
<text class="label" x="487" y="578" text-anchor="start">LOD</text>

<path class="arrow" d="M640 510 L640 542"/>
<path class="arrow" d="M420 318 C442 318, 442 318, 465 318"/>
<text class="lane" x="860" y="154">Presentation</text>
<rect class="box violet" x="860" y="188" width="350" height="86" rx="12"/>
<text class="label" x="882" y="224" text-anchor="start">Show cause and effect</text>

<rect class="box blue" x="860" y="306" width="350" height="86" rx="12"/>
<text class="label" x="882" y="342" text-anchor="start">Explain current limits</text>

<path class="arrow" d="M1035 274 L1035 306"/>
<path class="arrow" d="M815 318 C838 318, 838 318, 860 318"/>
</svg>